<?xml version="1.0" standalone="no"?>
<!DOCTYPE svg PUBLIC "-//W3C//DTD SVG 1.0//EN" "http://www.w3.org/TR/2001/REC-SVG-20010904/DTD/svg10.dtd">
<svg xmlns="http://www.w3.org/2000/svg" xmlns:xlink="http://www.w3.org/1999/xlink" id="body_1" width="1024" height="768">

<g transform="matrix(1.5 0 0 1.5 80.000015 -0)">
    <path d="M0 64C 0 28.7 28.7 0 64 0L64 0L224 0L224 128C 224 145.7 238.3 160 256 160L256 160L384 160L384 285.7L297.2 372.5C 286.90002 382.8 279.7 395.6 276.2 409.7L276.2 409.7L257.5 484.6C 255.2 493.80002 255.7 503.4 258.8 512.1L258.8 512.1L64 512C 28.7 512 0 483.3 0 448L0 448L0 64zM384 128L256 128L256 0L384 128zM549.8 235.7L564.2 250.09999C 579.8 265.69998 579.8 291 564.2 306.69998L564.2 306.69998L534.8 336.09998L463.8 265.09998L493.19998 235.69998C 508.8 220.09998 534.1 220.09998 549.8 235.69998zM311.9 417L441.1 287.8L512.1 358.8L382.9 487.9C 378.8 492 373.69998 494.9 368 496.3L368 496.3L307.9 511.3C 302.4 512.7 296.69998 511.09998 292.69998 507.09998C 288.69998 503.09998 287.09998 497.39996 288.49997 491.89996L288.49997 491.89996L303.49997 431.79996C 304.89996 426.19995 307.79996 420.99997 311.89996 416.89996z" stroke="none" fill="#000000" fill-rule="nonzero" />
</g>
</svg>
